<svg width="21" height="13" viewBox="0 0 21 13" fill="none" xmlns="http://www.w3.org/2000/svg">
<path fill-rule="evenodd" clip-rule="evenodd" d="M0 0H21V9L19 11L17 13H0V0ZM4.99999 3.50013C4.99999 4.32856 4.32842 5.00013 3.49999 5.00013C2.67157 5.00013 1.99999 4.32856 1.99999 3.50013C1.99999 2.6717 2.67157 2.00013 3.49999 2.00013C4.32842 2.00013 4.99999 2.6717 4.99999 3.50013ZM19 3.00013H12V4.00013H19V3.00013ZM12 7.00013H19L17.5 8.50013L16 10.0001H12V7.00013ZM1.99999 9.00013H5.99999V10.0001H1.99999V9.00013ZM7.99999 7.00013H1.99999V8.00013H7.99999V7.00013Z" fill="white"/>
</svg>
