<svg width="16" height="16" viewBox="0 0 16 16" fill="none" xmlns="http://www.w3.org/2000/svg">
<path fill-rule="evenodd" clip-rule="evenodd" d="M9.93125 1.40591L9.93044 1.40556L10.2943 0.678064C10.4101 0.446439 10.3163 0.164907 10.0847 0.0490948C9.8535 -0.0653427 9.5715 0.0266573 9.45569 0.258751L9.04638 1.07706C8.71009 0.98397 8.36431 0.937157 8 0.937157C7.63562 0.937157 7.28991 0.98397 6.95362 1.07706L6.54431 0.258751C6.42803 0.0266573 6.14653 -0.0653427 5.91534 0.0490948C5.68372 0.164907 5.58987 0.446439 5.70569 0.678064L6.06956 1.40556L6.06875 1.40591C4.70937 2.10903 3.78125 3.52466 3.78125 5.15591C3.78125 5.41844 3.98747 5.62466 4.25 5.62466H11.75C12.0125 5.62466 12.2188 5.41844 12.2188 5.15591C12.2188 3.52466 11.2906 2.10903 9.93125 1.40591ZM6.75 3.74966C6.48747 3.74966 6.28125 3.54344 6.28125 3.28091C6.28125 3.01838 6.48747 2.81216 6.75 2.81216C7.01253 2.81216 7.21875 3.01838 7.21875 3.28091C7.21875 3.54344 7.01253 3.74966 6.75 3.74966ZM9.25 3.74966C8.98747 3.74966 8.78125 3.54344 8.78125 3.28091C8.78125 3.01838 8.98747 2.81216 9.25 2.81216C9.51253 2.81216 9.71875 3.01838 9.71875 3.28091C9.71875 3.54344 9.51253 3.74966 9.25 3.74966ZM0 7.96842C0 7.19027 0.643718 6.56217 1.42187 6.56217C2.20003 6.56217 2.84375 7.19027 2.84375 7.96842V11.7184C2.84375 12.4966 2.20003 13.1247 1.42187 13.1247C0.643718 13.1247 0 12.4966 0 11.7184V7.96842ZM13.1562 7.96842C13.1562 7.19027 13.8 6.56217 14.5781 6.56217C15.3563 6.56217 16 7.19027 16 7.96842V11.7184C16 12.4966 15.3563 13.1247 14.5781 13.1247C13.8 13.1247 13.1562 12.4966 13.1562 11.7184V7.96842ZM4.25 6.56217H11.75C12.0125 6.56217 12.2188 6.76839 12.2188 7.03092V12.6559C12.2188 12.9185 12.0125 13.1247 11.75 13.1247H11.2812V14.5934C11.2812 15.3716 10.6532 15.9997 9.875 15.9997C9.09684 15.9997 8.46875 15.3716 8.46875 14.5934V13.1247H7.53125V14.5934C7.53125 15.3716 6.90316 15.9997 6.125 15.9997C5.34684 15.9997 4.71875 15.3716 4.71875 14.5934V13.1247H4.25C3.98747 13.1247 3.78125 12.9185 3.78125 12.6559V7.03092C3.78125 6.76839 3.98747 6.56217 4.25 6.56217Z" fill="#FFFFFF"/>
</svg>
