<svg width="8" height="8" viewBox="0 0 8 8" fill="none" xmlns="http://www.w3.org/2000/svg">
<path fill-rule="evenodd" clip-rule="evenodd" d="M4.95079 4.00002L7.80308 1.14772C8.06564 0.885164 8.06564 0.459475 7.80308 0.196956C7.54053 -0.0656018 7.11487 -0.0656018 6.85232 0.196956L3.99999 3.04929L1.14765 0.196918C0.885097 -0.0656393 0.459447 -0.0656393 0.19689 0.196918C-0.0656299 0.459475 -0.0656299 0.885164 0.19689 1.14768L3.04922 3.99998L0.19689 6.85232C-0.0656299 7.11487 -0.0656299 7.54056 0.19689 7.80308C0.459447 8.06564 0.885097 8.06564 1.14765 7.80308L3.99999 4.95075L6.85232 7.80308C7.11484 8.06564 7.54053 8.06564 7.80308 7.80308C8.06564 7.54052 8.06564 7.11487 7.80308 6.85232L4.95079 4.00002Z" fill="white" fill-opacity="0.8"/>
</svg>
