<svg width="14" height="16" viewBox="0 0 14 16" fill="none" xmlns="http://www.w3.org/2000/svg">
<path fill-rule="evenodd" clip-rule="evenodd" d="M9.5413 0C9.6003 2.12737 8.07889 3.60325 6.55927 3.51069C6.30886 1.81297 8.0787 0 9.5413 0ZM0 8.6497C0 11.1253 1.96975 15.9863 4.35103 16H4.36659C4.95858 16 5.4805 15.8052 5.94179 15.6331L5.94584 15.6315C6.28413 15.5047 6.60366 15.3853 6.85634 15.3853C7.35484 15.3853 7.65653 15.5134 8.00625 15.6622L8.00642 15.6623C8.352 15.8092 8.74381 15.9758 9.29806 15.9758C11.5635 15.9758 13.1236 11.7785 13.1236 11.5831C13.1236 11.2842 12.896 11.1473 12.6757 11.0148L12.6745 11.0141L12.6739 11.0137C12.1738 10.7128 11.1342 10.0873 11.1342 8.46204C11.1342 7.08937 12.0527 6.39631 12.5562 6.01634L12.5564 6.0162L12.9089 5.75023L12.664 5.3822C11.6185 3.81207 9.87941 3.6862 9.30584 3.6862H9.30128C8.53316 3.6862 7.87353 3.94848 7.34344 4.15951L7.33275 4.16374C7.08686 4.2611 6.81164 4.37007 6.69388 4.37007C6.49428 4.37007 6.13541 4.23823 5.78841 4.11051C5.29219 3.92742 4.72959 3.72051 4.20272 3.72051C3.03359 3.72051 0 4.60582 0 8.6497Z" fill="#6D6D6D"/>
</svg>
