<svg width="241" height="29" fill="none" xmlns="http://www.w3.org/2000/svg"><path d="M202.14 4.95h10.23c1.7 0 2.94.39 3.7 1.17.79.76 1.18 2 1.18 3.7v2.44c0 1.7-.4 2.94-1.17 3.72-.77.77-2 1.15-3.7 1.15h-5.85V22h-4.39V4.95zm10.72 4.87c0-.97-.49-1.46-1.46-1.46h-4.87v5.36h4.87c.97 0 1.46-.49 1.46-1.46V9.82zm26.43 6.09c0 1.7-.39 2.95-1.17 3.73-.76.76-2 1.14-3.7 1.14h-2.93v1.7h-4.38v-1.7h-2.92c-1.7 0-2.95-.38-3.73-1.14-.76-.78-1.15-2.02-1.15-3.73v-4.87c0-1.7.39-2.94 1.15-3.7.78-.78 2.02-1.17 3.73-1.17h2.92v-1.7h4.38v1.7h2.93c1.7 0 2.94.39 3.7 1.17.78.76 1.17 2 1.17 3.7v4.87zm-4.38-4.87c0-.98-.5-1.46-1.47-1.46h-2.19v7.8h2.2c.97 0 1.46-.5 1.46-1.47v-4.87zM223.7 15.9c0 .97.49 1.46 1.46 1.46h2.2v-7.8h-2.2c-.97 0-1.46.5-1.46 1.47v4.87z" fill="#515151"/><rect x="192.56" y="16.24" width="5.8" height="5.8" rx="2.9" fill="#4487C6"/><path d="M85.17 18.47c4.14.24 7.06.36 8.77.36.37 0 .66-.1.87-.31.23-.23.34-.53.34-.9v-.98c0-.97-.48-1.46-1.46-1.46h-5.84v-3.41h5.36c.97 0 1.46-.49 1.46-1.46v-.49c0-.97-.49-1.46-1.46-1.46h-7.8V4.95h9.01c1.6 0 2.76.36 3.51 1.1.75.7 1.12 1.8 1.12 3.28 0 .98-.22 1.77-.68 2.39a3.47 3.47 0 01-1.75 1.27 3.77 3.77 0 012.68 2.63c.16.5.24 1.09.24 1.75v.24c0 1.6-.37 2.77-1.12 3.51-.75.75-1.92 1.12-3.5 1.12-2.72 0-5.97-.16-9.75-.48v-3.3zm17.16-13.52h9.75c1.59 0 2.76.36 3.5 1.1.75.7 1.12 1.8 1.12 3.28 0 .98-.2 1.77-.63 2.39-.42.6-.94 1.02-1.56 1.27a3.77 3.77 0 012.68 2.63c.16.5.25 1.09.25 1.75 0 1.6-.38 2.76-1.13 3.5-.74.76-1.91 1.13-3.5 1.13h-10.48V4.95zm10.72 11.7c0-.98-.49-1.47-1.46-1.47h-4.87v3.4h4.87c.97 0 1.46-.48 1.46-1.45v-.49zm-.73-6.83c0-.97-.49-1.46-1.46-1.46h-4.14v3.4h4.14c.97 0 1.46-.48 1.46-1.45v-.49zm18.88-.24c0-.98-.49-1.47-1.46-1.47h-4.15c-.97 0-1.46.5-1.46 1.47v7.8c0 .97.5 1.45 1.46 1.45h4.15c.97 0 1.46-.48 1.46-1.46v-7.8zm4.38 7.8c0 1.7-.39 2.94-1.17 3.72-.76.76-2 1.14-3.7 1.14h-6.09c-1.7 0-2.95-.38-3.73-1.14-.76-.78-1.14-2.02-1.14-3.73v-7.8c0-1.7.38-2.93 1.14-3.7.78-.78 2.03-1.17 3.73-1.17h6.1c1.7 0 2.93.4 3.7 1.17.77.77 1.16 2 1.16 3.7v7.8zM153.5 22h-4.39v-6.94h-6.09V22h-4.38V4.95h4.38v6.7h6.1v-6.7h4.38V22zM168 9.58c0-.98-.48-1.46-1.46-1.46h-4.14c-.97 0-1.46.48-1.46 1.46v7.8c0 .97.49 1.45 1.46 1.45h4.14c.98 0 1.47-.48 1.47-1.46v-7.8zm4.39 7.8c0 1.7-.39 2.94-1.17 3.72-.76.76-2 1.14-3.7 1.14h-6.1c-1.7 0-2.94-.38-3.72-1.14-.76-.78-1.15-2.02-1.15-3.73v-7.8c0-1.7.39-2.93 1.15-3.7.78-.78 2.02-1.17 3.73-1.17h6.09c1.7 0 2.94.4 3.7 1.17.78.77 1.17 2 1.17 3.7v7.8zM187.87 4.7c.4 0 1.14.09 2.2.25v3.29h-.98a1 1 0 00-.66.24 1.54 1.54 0 00-.44.49l-2.31 4.38 4.75 8.65h-4.63l-3.78-6.94h-2.19V22h-4.38V4.95h4.38v6.7h2.2l2.43-4.63c.36-.68.8-1.24 1.31-1.66a3.2 3.2 0 012.1-.66z" fill="#515151"/><rect x="76.56" y="10.44" width="5.8" height="5.8" rx="2.9" fill="#4487C6"/><path d="M20.7 15.91c0 1.7-.38 2.95-1.16 3.73-.77.76-2 1.14-3.7 1.14H12.9v1.7H8.53v-1.7H5.6c-1.7 0-2.94-.38-3.72-1.14C1.1 18.86.73 17.6.73 15.9v-4.87c0-1.7.38-2.94 1.15-3.7.78-.78 2.02-1.17 3.72-1.17h2.93v-1.7h4.38v1.7h2.92c1.7 0 2.94.39 3.7 1.17.79.76 1.18 2 1.18 3.7v4.87zm-4.38-4.87c0-.98-.49-1.46-1.46-1.46h-2.2v7.8h2.2c.97 0 1.46-.5 1.46-1.47v-4.87zM5.12 15.9c0 .97.48 1.46 1.46 1.46h2.19v-7.8h-2.2c-.97 0-1.45.5-1.45 1.47v4.87zm31.54 5.85c-3.62.32-6.63.48-9.01.48-1.6 0-2.76-.37-3.51-1.12-.75-.74-1.12-1.91-1.12-3.5v-7.8c0-1.7.38-2.94 1.14-3.7.78-.78 2.02-1.17 3.73-1.17h8.77v3.4h-7.8c-.97 0-1.46.5-1.46 1.47v7.8c0 .37.1.67.32.9.23.2.51.31.85.31h1.12l1.27-.04 1.31-.05a53.05 53.05 0 001.73-.1l2.66-.17v3.29zm17.42.24h-4.39V11.53L43.85 22h-4.63V4.95h4.38v10.47l5.85-10.47h4.63V22zm18.4 0H68.1v-6.94H62V22h-4.38V4.95h4.39v6.7h6.09v-6.7h4.38V22z" fill="#515151"/></svg>