<svg width="250" height="31" fill="none" xmlns="http://www.w3.org/2000/svg"><path d="M210.46 6.25h10.65c1.78 0 3.06.4 3.86 1.21.8.8 1.21 2.08 1.21 3.86v2.54c0 1.77-.4 3.06-1.21 3.88-.8.79-2.08 1.19-3.86 1.19h-6.09V24h-4.56V6.25zm11.16 5.07c0-1.02-.5-1.52-1.52-1.52h-5.08v5.58h5.08c1.01 0 1.52-.51 1.52-1.52v-2.54zm27.52 6.34c0 1.77-.41 3.07-1.22 3.88-.8.8-2.08 1.2-3.86 1.2h-3.04v1.77h-4.57v-1.78h-3.04c-1.77 0-3.07-.4-3.88-1.19-.8-.81-1.2-2.1-1.2-3.88v-5.07c0-1.78.4-3.06 1.2-3.86.81-.81 2.1-1.22 3.88-1.22h3.04V5.74h4.57V7.5h3.04c1.78 0 3.06.41 3.86 1.22.81.8 1.22 2.08 1.22 3.86v5.07zm-4.57-5.07c0-1.02-.5-1.52-1.52-1.52h-2.28v8.11h2.28c1.01 0 1.52-.5 1.52-1.52v-5.07zm-11.67 5.07c0 1.01.51 1.52 1.53 1.52h2.28v-8.11h-2.28c-1.02 0-1.53.5-1.53 1.52v5.07z" fill="#fff"/><rect x="200.48" y="17.91" width="6.04" height="6.04" rx="3.02" fill="#4487C6"/><path d="M88.67 20.32c4.31.26 7.36.38 9.13.38.4 0 .7-.1.92-.33.23-.23.35-.55.35-.94v-1.01c0-1.01-.5-1.52-1.52-1.52h-6.09v-3.55h5.58c1.02 0 1.52-.5 1.52-1.52v-.51c0-1.02-.5-1.52-1.52-1.52h-8.11V6.25h9.38c1.66 0 2.87.38 3.65 1.14.78.74 1.17 1.88 1.17 3.42 0 1.02-.24 1.84-.71 2.49a3.62 3.62 0 01-1.83 1.32 3.93 3.93 0 012.8 2.74c.16.52.25 1.13.25 1.82v.25c0 1.66-.4 2.88-1.17 3.66-.78.77-2 1.16-3.65 1.16-2.83 0-6.2-.17-10.15-.5v-3.43zm17.87-14.07h10.15c1.66 0 2.87.38 3.65 1.14.78.74 1.17 1.88 1.17 3.42 0 1.02-.22 1.84-.66 2.49a3.57 3.57 0 01-1.63 1.32 3.93 3.93 0 012.8 2.74c.16.52.25 1.13.25 1.82 0 1.66-.4 2.88-1.17 3.65-.78.78-2 1.17-3.65 1.17h-10.9V6.25zm11.16 12.17c0-1.01-.5-1.52-1.52-1.52h-5.07v3.55h5.07c1.01 0 1.52-.5 1.52-1.52v-.51zm-.76-7.1c0-1.02-.5-1.52-1.52-1.52h-4.31v3.55h4.31c1.01 0 1.52-.5 1.52-1.52v-.51zm19.66-.25c0-1.02-.51-1.53-1.53-1.53h-4.3c-1.02 0-1.53.51-1.53 1.53v8.11c0 1.02.5 1.52 1.52 1.52h4.31c1.02 0 1.53-.5 1.53-1.52v-8.11zm4.56 8.11c0 1.78-.4 3.07-1.22 3.88-.79.8-2.08 1.2-3.85 1.2h-6.34c-1.78 0-3.07-.4-3.88-1.2-.8-.81-1.2-2.1-1.2-3.88v-8.11c0-1.78.4-3.07 1.2-3.86.81-.81 2.1-1.22 3.88-1.22h6.34c1.77 0 3.06.4 3.85 1.22.82.8 1.22 2.08 1.22 3.86v8.11zM159.82 24h-4.57v-7.23h-6.34V24h-4.57V6.25h4.57v6.97h6.34V6.25h4.56V24zm15.1-12.93c0-1.02-.51-1.53-1.52-1.53h-4.32c-1.01 0-1.52.51-1.52 1.53v8.11c0 1.02.5 1.52 1.52 1.52h4.32c1.01 0 1.52-.5 1.52-1.52v-8.11zm4.56 8.11c0 1.78-.4 3.07-1.22 3.88-.79.8-2.07 1.2-3.85 1.2h-6.34c-1.78 0-3.07-.4-3.88-1.2-.8-.81-1.2-2.1-1.2-3.88v-8.11c0-1.78.4-3.07 1.2-3.86.81-.81 2.1-1.22 3.88-1.22h6.34c1.78 0 3.06.4 3.85 1.22.82.8 1.22 2.08 1.22 3.86v8.11zM195.6 6c.42 0 1.18.09 2.28.26v3.42h-1.01c-.26 0-.48.08-.69.25-.2.16-.35.33-.45.51L193.32 15l4.94 9h-4.82l-3.93-7.23h-2.28V24h-4.56V6.25h4.56v6.97h2.28l2.54-4.82c.37-.7.83-1.28 1.37-1.72a3.33 3.33 0 012.18-.69z" fill="#fff"/><rect x="79.71" y="11.87" width="6.04" height="6.04" rx="3.02" fill="#4487C6"/><path d="M21.56 17.66c0 1.77-.4 3.07-1.22 3.88-.8.8-2.08 1.2-3.85 1.2h-3.05v1.77H8.88v-1.78H5.83c-1.77 0-3.07-.4-3.88-1.19-.8-.81-1.19-2.1-1.19-3.88v-5.07c0-1.78.4-3.06 1.2-3.86.8-.81 2.1-1.22 3.87-1.22h3.05V5.74h4.56V7.5h3.05c1.77 0 3.06.41 3.85 1.22.81.8 1.22 2.08 1.22 3.86v5.07zm-4.57-5.07c0-1.02-.5-1.52-1.52-1.52H13.2v8.11h2.28c1.02 0 1.52-.5 1.52-1.52v-5.07zM5.33 17.66c0 1.01.5 1.52 1.52 1.52h2.28v-8.11H6.85c-1.02 0-1.52.5-1.52 1.52v5.07zm32.84 6.09c-3.77.33-6.9.5-9.39.5-1.65 0-2.87-.39-3.65-1.16-.78-.78-1.17-2-1.17-3.66v-8.11c0-1.78.4-3.06 1.2-3.86.8-.8 2.1-1.21 3.88-1.21h9.13V9.8h-8.12c-1.01 0-1.52.5-1.52 1.52v8.11c0 .4.11.7.33.94.24.22.53.33.89.33h1.16a446.99 446.99 0 012.7-.1l1.8-.1 2.76-.18v3.43zM56.3 24h-4.56V13.1L45.65 24h-4.82V6.25h4.57v10.9l6.09-10.9h4.81V24zm19.16 0H70.9v-7.23h-6.34V24h-4.57V6.25h4.57v6.97h6.34V6.25h4.56V24z" fill="#fff"/></svg>