<svg width="6" height="10" viewBox="0 0 6 10" fill="none" xmlns="http://www.w3.org/2000/svg">
<path fill-rule="evenodd" clip-rule="evenodd" d="M1.00291 2.86768L0.246673 2.76326C0.0853078 2.74102 -0.0254671 2.57279 0.00507011 2.39296C0.103634 1.77707 0.383624 1.24337 0.844169 0.792818C1.38496 0.26395 2.09409 0 2.97332 0C3.89789 0 4.63407 0.267818 5.18009 0.803453C5.72699 1.33909 6 1.96271 6 2.67334C6 3.06685 5.89882 3.43909 5.6982 3.79006C5.49671 4.14199 5.06756 4.61961 4.40903 5.22391C4.06885 5.53716 3.8569 5.78854 3.77492 5.97902C3.72606 6.0902 3.69379 6.2536 3.67634 6.4692C3.65192 6.76892 3.42688 7 3.15474 7H2.72734C2.42903 7 2.19179 6.72541 2.204 6.39572C2.21795 6.0109 2.27378 5.62707 2.43427 5.28093C2.59127 4.94253 2.9044 4.5616 3.37541 4.13909C3.84555 3.71657 4.12728 3.44006 4.21887 3.30856C4.36017 3.10166 4.43083 2.87348 4.43083 2.62403C4.43083 2.27693 4.30609 1.98108 4.05489 1.73356C3.80368 1.48702 3.46525 1.36326 3.04047 1.36326C2.63051 1.36326 2.28773 1.49282 2.01209 1.75C1.81758 1.93177 1.66581 2.18122 1.55678 2.49738C1.47043 2.74779 1.24278 2.90055 1.00291 2.86768ZM2.71856 8H3.28144C3.67786 8 4 8.2899 4 8.649V9.351C4 9.70903 3.67786 10 3.28144 10H2.71856C2.32216 10 2 9.70903 2 9.351V8.649C2 8.29097 2.32216 8 2.71856 8Z" fill="white" fill-opacity="0.8"/>
</svg>
