<svg width="14" height="14" viewBox="0 0 14 14" fill="none" xmlns="http://www.w3.org/2000/svg">
<path fill-rule="evenodd" clip-rule="evenodd" d="M10.4782 5.95899C10.4782 8.24144 8.56695 10.168 6.11408 10.168C3.66121 10.168 1.75 8.24144 1.75 5.95899C1.75 3.67654 3.66121 1.75 6.11408 1.75C8.56695 1.75 10.4782 3.67654 10.4782 5.95899ZM9.26966 11.064C8.34845 11.6061 7.26864 11.918 6.11408 11.918C2.73737 11.918 0 9.25005 0 5.95899C0 2.66793 2.73737 0 6.11408 0C9.49079 0 12.2282 2.66793 12.2282 5.95899C12.2282 7.26747 11.7955 8.47745 11.0619 9.46041L13.65 11.9831C14.1213 12.4425 14.1154 13.1931 13.644 13.6525C13.1727 14.112 12.4026 14.1178 11.9313 13.6583L9.26966 11.064Z" fill="#454545"/>
</svg>
